<svg xmlns="http://www.w3.org/2000/svg" viewBox="0 0 512 512">
  <defs>
    <linearGradient id="g" x1="0" y1="0" x2="1" y2="1">
      <stop offset="0%" stop-color="#ff5e8a"/>
      <stop offset="60%" stop-color="#ff7eb0"/>
      <stop offset="100%" stop-color="#ff9caa"/>
    </linearGradient>
    <radialGradient id="g2" cx="30%" cy="25%" r="55%">
      <stop offset="0%" stop-color="#ff8fb1"/>
      <stop offset="100%" stop-color="transparent"/>
    </radialGradient>
    <radialGradient id="g3" cx="80%" cy="80%" r="50%">
      <stop offset="0%" stop-color="#ffc857"/>
      <stop offset="100%" stop-color="transparent"/>
    </radialGradient>
  </defs>
  <rect width="512" height="512" rx="110" fill="url(#g)"/>
  <rect width="512" height="512" rx="110" fill="url(#g2)"/>
  <rect width="512" height="512" rx="110" fill="url(#g3)" opacity=".5"/>
  <!-- 装飾ハート -->
  <g opacity=".22" fill="#fff">
    <path transform="translate(60 60) rotate(-15) scale(3.5)" d="M12 21s-7.5-4.6-9.5-9.2C1.1 8.4 2.6 4.8 6 4c2.3-.5 4.5.8 6 2.7 1.5-1.9 3.7-3.2 6-2.7 3.4.8 4.9 4.4 3.5 7.8C19.5 16.4 12 21 12 21z"/>
    <path transform="translate(382 350) rotate(12) scale(2.6)" d="M12 21s-7.5-4.6-9.5-9.2C1.1 8.4 2.6 4.8 6 4c2.3-.5 4.5.8 6 2.7 1.5-1.9 3.7-3.2 6-2.7 3.4.8 4.9 4.4 3.5 7.8C19.5 16.4 12 21 12 21z"/>
    <path transform="translate(390 90) rotate(20) scale(2)" d="M12 21s-7.5-4.6-9.5-9.2C1.1 8.4 2.6 4.8 6 4c2.3-.5 4.5.8 6 2.7 1.5-1.9 3.7-3.2 6-2.7 3.4.8 4.9 4.4 3.5 7.8C19.5 16.4 12 21 12 21z"/>
    <path transform="translate(70 380) rotate(-10) scale(2.2)" d="M12 21s-7.5-4.6-9.5-9.2C1.1 8.4 2.6 4.8 6 4c2.3-.5 4.5.8 6 2.7 1.5-1.9 3.7-3.2 6-2.7 3.4.8 4.9 4.4 3.5 7.8C19.5 16.4 12 21 12 21z"/>
  </g>
  <!-- 内枠 -->
  <rect x="24" y="24" width="464" height="464" rx="86" fill="none"
        stroke="rgba(255,255,255,0.32)" stroke-width="4" stroke-dasharray="14 10"/>
  <!-- LOVESONG ラベル -->
  <text x="256" y="190" font-family="system-ui, -apple-system, sans-serif"
        font-size="56" font-weight="900" text-anchor="middle"
        fill="#fff" letter-spacing="6"
        style="paint-order: stroke; stroke: rgba(0,0,0,0.18); stroke-width: 2;">LOVESONG</text>
  <!-- 16 大文字 -->
  <text x="256" y="400" font-family="system-ui, -apple-system, sans-serif"
        font-size="240" font-weight="900" text-anchor="middle"
        fill="#fff"
        style="paint-order: stroke; stroke: rgba(0,0,0,0.18); stroke-width: 4;">16</text>
</svg>
